<svg width="129" height="129" viewBox="0 0 129 129" fill="none" xmlns="http://www.w3.org/2000/svg">
<circle cx="64.5" cy="64.5" r="64.5" fill="url(#paint0_linear)" fill-opacity="0.35"/>
<path d="M47.3834 46.488C47.4049 46.055 47.2119 45.6391 46.8673 45.3761C46.5226 45.113 46.0706 45.0364 45.6586 45.1714C42.0425 46.2418 39.5413 49.5376 39.4834 53.3084C39.5697 57.0546 42.0653 60.3164 45.6586 61.3795C46.0593 61.5102 46.4984 61.4411 46.8397 61.1936C47.181 60.9461 47.3831 60.5502 47.3834 60.1287V46.488ZM44.7501 58.0352C43.1181 57.0182 42.1261 55.2313 42.1261 53.3084C42.1261 51.3854 43.1181 49.5985 44.7501 48.5815V58.0352Z" fill="black"/>
<path d="M51.7416 83.7629C55.3881 82.7773 57.9207 79.4691 57.9207 75.6917C57.9207 71.9144 55.3881 68.6062 51.7416 67.6206C51.3296 67.4856 50.8775 67.5622 50.5329 67.8253C50.1883 68.0883 49.9952 68.5042 50.0168 68.9372V82.5121C50.0171 82.9336 50.2192 83.3295 50.5605 83.577C50.9017 83.8245 51.3408 83.8936 51.7416 83.7629ZM52.6501 70.9649C54.2821 71.9819 55.274 73.7688 55.274 75.6917C55.274 77.6147 54.2821 79.4016 52.6501 80.4186V70.9649Z" fill="black"/>
<path d="M42.1168 75.6918C42.1168 72.7831 39.7589 70.4252 36.8502 70.4252C33.9415 70.4252 31.5835 72.7831 31.5835 75.6918C31.679 83.4517 37.1535 90.1032 44.7502 91.6893V92.1502C44.7502 94.3317 46.5186 96.1002 48.7002 96.1002C50.8817 96.1002 52.6502 94.3317 52.6502 92.1502V91.6893C60.302 90.1934 65.8231 83.4885 65.8231 75.6918C65.8231 67.8952 60.302 61.1902 52.6502 59.6943V48.5816C54.2568 49.6238 55.2429 51.3939 55.2835 53.3085C55.2835 56.2172 57.6415 58.5752 60.5502 58.5752C63.4589 58.5752 65.8168 56.2172 65.8168 53.3085C65.7214 45.5486 60.2469 38.8971 52.6502 37.311V36.8501C52.6502 34.6686 50.8817 32.9001 48.7002 32.9001C46.5186 32.9001 44.7502 34.6686 44.7502 36.8501V37.311C37.1535 38.8971 31.679 45.5486 31.5835 53.3085C31.679 61.0684 37.1535 67.7199 44.7502 69.306V80.4187C43.1436 79.3765 42.1574 77.6064 42.1168 75.6918ZM46.2775 66.9228C39.4518 65.9765 34.3332 60.1985 34.2168 53.3085C34.3332 46.4185 39.4518 40.6405 46.2775 39.6941C46.9214 39.5898 47.3919 39.0297 47.3835 38.3775V36.8501C47.3835 36.123 47.973 35.5335 48.7002 35.5335C49.4273 35.5335 50.0168 36.123 50.0168 36.8501V38.3906C50.0084 39.0429 50.4789 39.603 51.1228 39.7073C57.9436 40.6529 63.0607 46.4235 63.1835 53.3085C63.1835 54.7628 62.0045 55.9418 60.5502 55.9418C59.0958 55.9418 57.9168 54.7628 57.9168 53.3085C57.8305 49.5622 55.3349 46.3004 51.7417 45.2373C51.3296 45.1024 50.8776 45.1789 50.533 45.442C50.1883 45.7051 49.9953 46.121 50.0168 46.554V60.774C50.0084 61.4263 50.4789 61.9863 51.1228 62.0907C57.9907 62.9466 63.1457 68.784 63.1457 75.705C63.1457 82.626 57.9907 88.4633 51.1228 89.3193C50.4789 89.4236 50.0084 89.9837 50.0168 90.636V92.1502C50.0168 92.8773 49.4273 93.4668 48.7002 93.4668C47.973 93.4668 47.3835 92.8773 47.3835 92.1502V90.6097C47.3919 89.9574 46.9214 89.3973 46.2775 89.293C39.4567 88.3474 34.3396 82.5768 34.2168 75.6918C34.2168 74.2375 35.3958 73.0585 36.8502 73.0585C38.3045 73.0585 39.4835 74.2375 39.4835 75.6918C39.5698 79.4381 42.0654 82.6999 45.6587 83.763C46.0707 83.8979 46.5228 83.8214 46.8674 83.5583C47.212 83.2952 47.405 82.8794 47.3835 82.4463V68.2263C47.3854 67.579 46.9165 67.0264 46.2775 66.9228Z" fill="black"/>
<path d="M81.0736 55.5333H92.9236C94.0144 55.5333 94.8986 54.6491 94.8986 53.5583V46.975C94.8986 45.8842 94.0144 45 92.9236 45H81.0736C79.9829 45 79.0986 45.8842 79.0986 46.975V53.5583C79.0986 54.0821 79.3067 54.5845 79.6771 54.9549C80.0475 55.3253 80.5498 55.5333 81.0736 55.5333ZM81.732 47.6333H92.2653V52.9H81.732V47.6333Z" fill="black"/>
<path d="M85.5371 90.1222C85.9135 90.5304 86.4434 90.7625 86.9986 90.7625C87.5538 90.7625 88.0837 90.5304 88.4601 90.1222L101.482 75.9549C102.014 75.3713 102.147 74.5269 101.82 73.8079C101.494 73.089 100.77 72.6336 99.9809 72.6501H94.8986V60.1417C94.8986 59.051 94.0143 58.1667 92.9236 58.1667H81.0736C79.9828 58.1667 79.0986 59.051 79.0986 60.1417V72.6501H74.0162C73.2268 72.6336 72.5034 73.089 72.1768 73.8079C71.8503 74.5269 71.9834 75.3713 72.5152 75.9549L85.5371 90.1222ZM79.7569 75.2834C80.8477 75.2834 81.7319 74.3992 81.7319 73.3084V60.8001H92.2652V73.3084C92.2652 74.3992 93.1495 75.2834 94.2402 75.2834H98.4931L86.9986 87.8181L75.5041 75.2834H79.7569Z" fill="black"/>
<defs>
<linearGradient id="paint0_linear" x1="129" y1="65" x2="-5.76058e-06" y2="65" gradientUnits="userSpaceOnUse">
<stop stop-color="#B227FF"/>
<stop offset="1" stop-color="#28CBFE"/>
</linearGradient>
</defs>
</svg>
