<svg width="129" height="129" viewBox="0 0 129 129" fill="none" xmlns="http://www.w3.org/2000/svg">
<circle cx="64.5" cy="64.5" r="64.5" fill="url(#paint0_linear)" fill-opacity="0.35"/>
<path d="M28.4531 46.7712H41.5846C42.2723 46.7712 42.8297 46.2139 42.8297 45.5261C42.8297 44.8383 42.2723 44.281 41.5846 44.281H28.4531C27.7655 44.281 27.208 44.8383 27.208 45.5261C27.208 46.2139 27.7653 46.7712 28.4531 46.7712Z" fill="black"/>
<path d="M41.1346 52.7656H35.9473C35.2596 52.7656 34.7021 53.3229 34.7021 54.0107C34.7021 54.6985 35.2596 55.2559 35.9473 55.2559H41.1346C41.8222 55.2559 42.3797 54.6985 42.3797 54.0107C42.3797 53.3229 41.8222 52.7656 41.1346 52.7656Z" fill="black"/>
<path d="M23.2451 61.4001H35.9473C36.6349 61.4001 37.1924 60.8428 37.1924 60.155C37.1924 59.4672 36.6349 58.9099 35.9473 58.9099H23.2451C22.5575 58.9099 22 59.4672 22 60.155C22 60.8428 22.5575 61.4001 23.2451 61.4001Z" fill="black"/>
<path d="M42.8297 83.4739C42.8297 82.7861 42.2723 82.2288 41.5846 82.2288H28.4531C27.7655 82.2288 27.208 82.7861 27.208 83.4739C27.208 84.1617 27.7655 84.719 28.4531 84.719H41.5846C42.2723 84.719 42.8297 84.1617 42.8297 83.4739Z" fill="black"/>
<path d="M41.1346 73.7444H35.9473C35.2596 73.7444 34.7021 74.3017 34.7021 74.9895C34.7021 75.6773 35.2596 76.2346 35.9473 76.2346H41.1346C41.8222 76.2346 42.3797 75.6773 42.3797 74.9895C42.3797 74.3017 41.8222 73.7444 41.1346 73.7444Z" fill="black"/>
<path d="M37.1924 68.8452C37.1924 68.1574 36.6349 67.6001 35.9473 67.6001H23.2451C22.5575 67.6001 22 68.1574 22 68.8452C22 69.533 22.5575 70.0903 23.2451 70.0903H35.9473C36.6349 70.0903 37.1924 69.533 37.1924 68.8452Z" fill="black"/>
<path d="M75.0469 49.5304C75.7347 49.5304 76.292 48.9731 76.292 48.2853V46.3848C76.292 45.697 75.7347 45.1396 75.0469 45.1396C74.3591 45.1396 73.8018 45.697 73.8018 46.3848V48.2853C73.8018 48.9731 74.3591 49.5304 75.0469 49.5304Z" fill="black"/>
<path d="M88.7361 50.8101C88.2497 50.324 87.4614 50.324 86.9752 50.8101L85.6313 52.154C85.145 52.6404 85.145 53.4287 85.6313 53.9149C86.1179 54.4012 86.906 54.401 87.3922 53.9149L88.7361 52.5711C89.2222 52.0848 89.2222 51.2966 88.7361 50.8101Z" fill="black"/>
<path d="M91.2617 63.2549C90.5739 63.2549 90.0166 63.8122 90.0166 64.5C90.0166 65.1878 90.5739 65.7451 91.2617 65.7451H93.1621C93.8499 65.7451 94.4072 65.1878 94.4072 64.5C94.4072 63.8122 93.8499 63.2549 93.1621 63.2549H91.2617Z" fill="black"/>
<path d="M87.3922 75.085C86.9058 74.5989 86.1176 74.5989 85.6313 75.085C85.145 75.5715 85.145 76.3597 85.6313 76.846L86.9752 78.1899C87.4618 78.6761 88.2499 78.676 88.7361 78.1899C89.2224 77.7034 89.2224 76.9152 88.7361 76.4289L87.3922 75.085Z" fill="black"/>
<path d="M73.8018 80.7148V82.6152C73.8018 83.303 74.3591 83.8603 75.0469 83.8603C75.7347 83.8603 76.292 83.303 76.292 82.6152V80.7148C76.292 80.027 75.7347 79.4697 75.0469 79.4697C74.3591 79.4697 73.8018 80.0272 73.8018 80.7148Z" fill="black"/>
<path d="M62.7008 75.085L61.3569 76.4289C60.8706 76.9154 60.8706 77.7036 61.3569 78.1899C61.8433 78.6761 62.6315 78.676 63.1176 78.1899L64.4615 76.846C64.9478 76.3595 64.9478 75.5713 64.4615 75.085C63.9754 74.5989 63.187 74.5989 62.7008 75.085Z" fill="black"/>
<path d="M56.9316 63.2549C56.244 63.2549 55.6865 63.8122 55.6865 64.5C55.6865 65.1878 56.244 65.7451 56.9316 65.7451H58.8322C59.5198 65.7451 60.0773 65.1878 60.0773 64.5C60.0773 63.8122 59.5198 63.2549 58.8322 63.2549H56.9316Z" fill="black"/>
<path d="M64.4615 52.154L63.1176 50.8101C62.6314 50.324 61.843 50.324 61.3569 50.8101C60.8706 51.2966 60.8706 52.0848 61.3569 52.5711L62.7008 53.9149C63.1872 54.4012 63.9754 54.401 64.4615 53.9149C64.9478 53.4287 64.9478 52.6404 64.4615 52.154Z" fill="black"/>
<path d="M81.7423 64.5C81.7423 63.8122 81.185 63.2549 80.4972 63.2549H76.292V54.0105C76.292 53.3227 75.7347 52.7654 75.0469 52.7654C74.3591 52.7654 73.8018 53.3227 73.8018 54.0105V64.5C73.8018 65.1878 74.3591 65.7451 75.0469 65.7451H80.4972C81.1848 65.7451 81.7423 65.1878 81.7423 64.5Z" fill="black"/>
<path d="M98.6559 64.2947C99.3424 64.253 99.865 63.6628 99.8233 62.9765C99.0313 49.9106 88.148 39.6755 75.0463 39.6755C61.358 39.6755 50.2217 50.8119 50.2217 64.5004C50.2217 78.1887 61.358 89.325 75.0463 89.325C87.3097 89.325 97.7739 80.3399 99.5942 68.215C99.6963 67.535 99.2278 66.9009 98.5477 66.7988C97.8693 66.6971 97.2337 67.1651 97.1315 67.8454C95.4963 78.7383 86.0905 86.8349 75.0463 86.8349C62.7311 86.8349 52.7119 76.8157 52.7119 64.5005C52.7119 52.1853 62.7311 42.1659 75.0463 42.1659C86.8336 42.1659 96.625 51.3733 97.3376 63.1276C97.3791 63.8135 97.9688 64.3345 98.6559 64.2947Z" fill="black"/>
<path d="M75.0469 32.5469C70.6672 32.5469 66.3762 33.4555 62.4267 35.1546H40.458C39.7704 35.1546 39.2129 35.712 39.2129 36.3998C39.2129 37.0876 39.7704 37.6449 40.458 37.6449H57.7424C55.4054 39.149 53.254 40.9632 51.3571 43.0577C50.8956 43.5672 50.9344 44.3546 51.4441 44.8163C51.9539 45.278 52.741 45.2389 53.2029 44.7293C58.7813 38.5698 66.7433 35.0371 75.0469 35.0371C91.2928 35.0371 104.51 48.2541 104.51 64.5001C104.51 80.7459 91.293 93.963 75.0469 93.963C58.8009 93.963 45.5839 80.746 45.5839 64.5001C45.5839 58.811 47.209 53.2894 50.2833 48.5317C50.6565 47.9541 50.4908 47.1835 49.9133 46.8103C49.3357 46.4372 48.5651 46.6026 48.1917 47.1803C44.8564 52.3414 43.0937 58.3304 43.0937 64.5001C43.0937 75.7503 48.9384 85.6601 57.7504 91.3553H40.4582C39.7705 91.3553 39.2131 91.9126 39.2131 92.6004C39.2131 93.2882 39.7705 93.8455 40.4582 93.8455H62.4096C66.2877 95.5221 70.5605 96.4533 75.047 96.4533C92.666 96.4533 107 82.1191 107 64.5001C107 46.881 92.666 32.5469 75.0469 32.5469Z" fill="black"/>
<defs>
<linearGradient id="paint0_linear" x1="129" y1="65" x2="-5.76058e-06" y2="65" gradientUnits="userSpaceOnUse">
<stop stop-color="#B227FF"/>
<stop offset="1" stop-color="#28CBFE"/>
</linearGradient>
</defs>
</svg>
