<svg width="129" height="129" viewBox="0 0 129 129" fill="none" xmlns="http://www.w3.org/2000/svg">
<circle cx="64.5" cy="64.5" r="64.5" fill="url(#paint0_linear)" fill-opacity="0.35"/>
<g clip-path="url(#clip0)">
<path d="M84.3229 104.862L77.6036 81.957C77.6033 81.9556 77.6028 81.9543 77.6025 81.9528L75.2047 73.7795C75.2045 73.7787 75.2042 73.7779 75.204 73.7772L71.8907 62.4827C71.89 62.4805 71.8895 62.4784 71.8889 62.4764L66.6172 44.5062C68.9378 43.644 70.5958 41.4076 70.5958 38.7907C70.5958 35.4299 67.8615 32.6958 64.5008 32.6958C61.1402 32.6958 58.4059 35.4301 58.4059 38.7907C58.4059 41.4076 60.0639 43.6442 62.3845 44.5062L51.3992 81.9532C51.3989 81.9545 51.3984 81.9558 51.398 81.9573L44.6787 104.862C44.4194 105.746 44.9258 106.673 45.8096 106.932C46.6947 107.192 47.6204 106.685 47.8798 105.801L48.9015 102.319L64.501 92.0145L80.1005 102.319L81.1222 105.801C81.3355 106.529 82.0007 107 82.7222 107C82.8776 107 83.0358 106.978 83.1924 106.932C84.0759 106.673 84.5823 105.746 84.3229 104.862ZM61.7418 38.7904C61.7418 37.2692 62.9795 36.0316 64.5007 36.0316C66.0219 36.0316 67.2595 37.2692 67.2595 38.7904C67.2595 40.3116 66.0219 41.5493 64.5007 41.5493C62.9795 41.5493 61.7418 40.3118 61.7418 38.7904ZM64.5007 49.1433L68.0687 61.3064H60.9325L64.5007 49.1433ZM59.9538 64.6425H69.0475L71.3835 72.606H57.6178L59.9538 64.6425ZM50.3561 97.3592L53.9656 85.0555L61.4744 90.0152L50.3561 97.3592ZM54.9481 81.7063L56.6392 75.9421H72.3623L74.0534 81.7063L64.5007 88.0162L54.9481 81.7063ZM67.5271 90.0154L75.0359 85.0557L78.6454 97.3594L67.5271 90.0154Z" fill="black"/>
<path d="M56.571 30.8607C57.2225 30.2092 57.2225 29.153 56.571 28.5018C55.9196 27.8503 54.8635 27.8503 54.2119 28.5018C48.5394 34.1749 48.5394 43.4058 54.2121 49.0789C54.5378 49.4046 54.9647 49.5675 55.3916 49.5675C55.8185 49.5675 56.2453 49.4045 56.571 49.0789C57.2225 48.4275 57.2225 47.3713 56.571 46.72C52.1985 42.3476 52.1985 35.233 56.571 30.8607Z" fill="black"/>
<path d="M74.7896 28.502C74.1381 27.8506 73.0823 27.8506 72.4305 28.502C71.779 29.1535 71.779 30.2096 72.4305 30.8609C76.8028 35.2333 76.8028 42.3479 72.4305 46.7202C71.7792 47.3713 71.7792 48.4277 72.4306 49.079C72.7564 49.4047 73.1832 49.5676 73.6102 49.5676C74.0372 49.5676 74.4638 49.4045 74.7897 49.079C80.4625 43.4059 80.4625 34.1749 74.7896 28.502Z" fill="black"/>
<path d="M50.5582 24.8475C51.2097 24.1961 51.2097 23.1399 50.5582 22.4886C49.9068 21.8371 48.8507 21.8371 48.1991 22.4886C43.8449 26.843 41.4468 32.6323 41.4468 38.7905C41.4468 44.9485 43.8449 50.738 48.1991 55.0924C48.525 55.4181 48.9517 55.581 49.3788 55.581C49.806 55.581 50.2325 55.4179 50.5584 55.0924C51.2098 54.4409 51.2098 53.3848 50.5584 52.7335C42.8699 45.0451 42.8699 32.5357 50.5582 24.8475Z" fill="black"/>
<path d="M84.1433 26.7115C83.6602 25.9272 82.6326 25.6828 81.8481 26.1659C81.0641 26.6492 80.8198 27.6767 81.3028 28.4609C86.1089 36.2627 84.933 46.2439 78.4437 52.7331C77.7922 53.3845 77.7922 54.4407 78.4437 55.0922C78.7694 55.4179 79.1962 55.5807 79.6232 55.5807C80.05 55.5807 80.4769 55.4179 80.8027 55.0922C84.4919 51.4028 86.8399 46.5206 87.414 41.3451C87.9789 36.2497 86.8175 31.0526 84.1433 26.7115Z" fill="black"/>
<path d="M79.623 22C77.4764 22 77.4729 25.3361 79.623 25.3361C81.7695 25.3361 81.773 22 79.623 22Z" fill="black"/>
</g>
<defs>
<linearGradient id="paint0_linear" x1="129" y1="65" x2="-5.76058e-06" y2="65" gradientUnits="userSpaceOnUse">
<stop stop-color="#B227FF"/>
<stop offset="1" stop-color="#28CBFE"/>
</linearGradient>
<clipPath id="clip0">
<rect width="85" height="85" fill="white" transform="translate(22 22)"/>
</clipPath>
</defs>
</svg>
